<?xml version="1.0" standalone="no"?>
<!DOCTYPE svg PUBLIC "-//W3C//DTD SVG 20010904//EN"
 "http://www.w3.org/TR/2001/REC-SVG-20010904/DTD/svg10.dtd">
<svg version="1.0" xmlns="http://www.w3.org/2000/svg"
 width="640.000000pt" height="640.000000pt" viewBox="0 0 640.000000 640.000000"
 preserveAspectRatio="xMidYMid meet">
<metadata>
Created by potrace 1.14, written by Peter Selinger 2001-2017
</metadata>
<g transform="translate(0.000000,640.000000) scale(0.100000,-0.100000)"
fill="#000000" stroke="none">
<path d="M5979 5899 c-53 -62 -67 -79 -122 -144 -23 -27 -54 -62 -69 -78 -16
-16 -28 -30 -28 -33 0 -2 -8 -12 -17 -23 -16 -16 -36 -39 -123 -141 -12 -14
-36 -42 -53 -63 -91 -110 -123 -138 -161 -147 -36 -8 -48 -4 -150 50 -62 32
-165 87 -229 123 -64 36 -125 68 -135 71 -15 5 -35 -17 -103 -116 -46 -68 -87
-127 -91 -133 -5 -5 -19 -26 -31 -45 -13 -19 -48 -71 -78 -115 -31 -44 -86
-125 -124 -180 -104 -152 -106 -155 -146 -167 -32 -9 -56 -6 -166 21 -70 17
-137 33 -148 35 -11 2 -33 9 -50 16 -16 6 -31 11 -33 10 -1 -1 -27 4 -57 10
-30 6 -58 11 -62 12 -5 0 -15 4 -23 8 -9 5 -36 11 -60 15 -25 4 -48 8 -51 11
-4 2 -14 -6 -22 -19 -8 -12 -28 -36 -43 -54 -16 -17 -42 -48 -59 -69 -16 -21
-37 -45 -45 -54 -8 -8 -58 -67 -110 -130 -52 -63 -97 -117 -100 -120 -7 -7
-101 -119 -120 -144 -34 -44 -92 -96 -108 -97 -9 0 -24 -2 -32 -4 -37 -7 -82
28 -295 230 -17 17 -85 80 -151 141 -65 62 -150 141 -189 178 -38 36 -76 66
-84 66 -8 0 -119 -52 -246 -115 -163 -81 -242 -115 -267 -115 -36 0 -84 29
-143 86 -32 30 -128 114 -200 175 -22 19 -52 45 -66 59 -15 14 -35 32 -45 40
-46 38 -172 147 -199 172 -16 15 -33 28 -36 28 -4 0 -64 -70 -135 -156 -71
-86 -136 -164 -144 -173 -9 -9 -47 -54 -85 -101 -38 -47 -72 -87 -75 -90 -3
-3 -22 -26 -43 -51 l-37 -46 2 -354 3 -353 138 -82 c75 -45 143 -85 150 -88 6
-3 30 -18 52 -31 22 -14 48 -28 58 -32 9 -3 17 -9 17 -13 0 -4 12 -12 26 -19
24 -11 31 -8 82 31 31 23 63 48 72 55 69 57 369 277 388 284 34 13 87 1 114
-26 19 -19 85 -129 164 -270 6 -11 35 -60 64 -110 29 -49 64 -110 78 -135 14
-25 36 -62 49 -83 l23 -37 39 37 c32 32 164 156 295 278 18 17 82 76 142 132
60 57 118 109 129 116 40 26 79 19 215 -38 74 -31 166 -70 205 -85 38 -16 142
-58 230 -95 130 -53 162 -63 170 -52 9 12 83 100 110 131 6 6 33 38 60 71 28
33 52 62 55 65 3 3 24 27 45 55 22 27 47 56 55 65 8 9 33 38 55 64 22 27 45
54 50 60 6 6 46 53 89 104 43 52 90 98 103 103 56 21 79 11 344 -151 144 -88
266 -160 270 -160 5 0 9 -4 9 -9 0 -5 8 -11 18 -15 9 -3 25 -11 35 -18 16 -11
23 -7 62 37 39 45 305 361 330 393 5 7 19 23 30 35 11 13 40 47 65 77 78 95
82 99 114 109 17 6 55 13 85 16 30 4 61 8 70 10 9 1 43 6 76 10 32 4 68 9 79
11 11 2 45 6 76 9 31 3 67 7 80 10 37 7 112 18 140 19 l25 2 5 642 c3 353 2
642 -1 642 -3 0 -26 -23 -50 -51z"/>
<path d="M0 3048 l0 -2423 90 -90 90 -90 3105 0 c1708 0 3105 2 3105 4 0 4
-79 98 -115 137 -5 6 -37 42 -70 79 -108 123 -135 148 -148 138 -14 -9 -255
-10 -281 0 -9 4 -16 3 -16 -1 0 -6 -99 -8 -107 -2 -4 2 -71 2 -80 0 -12 -3
-307 -3 -318 0 -5 1 -13 2 -17 0 -22 -5 -297 -2 -306 4 -6 3 -13 3 -16 -2 -5
-8 -99 -6 -123 3 -7 2 -14 1 -17 -3 -5 -9 -270 -7 -285 2 -6 4 -11 4 -11 -1 0
-6 -98 -9 -107 -3 -4 2 -71 2 -80 0 -12 -3 -307 -3 -318 0 -5 1 -14 1 -20 0
-5 -1 -66 -1 -135 0 -69 1 -136 1 -150 0 -14 -1 -42 -2 -63 -3 -20 -1 -37 2
-37 6 0 5 -4 6 -10 2 -5 -3 -49 -5 -97 -5 -90 1 -110 0 -176 -3 -20 -1 -37 2
-37 6 0 5 -5 5 -10 2 -15 -9 -213 -10 -227 -2 -7 4 -14 4 -17 -1 -5 -8 -99 -6
-123 3 -7 2 -14 1 -17 -3 -5 -9 -270 -7 -285 2 -6 4 -11 4 -11 -1 0 -6 -98 -9
-107 -3 -4 2 -71 2 -80 0 -12 -3 -307 -3 -318 0 -5 1 -14 1 -20 0 -5 -1 -66
-1 -135 0 -69 1 -136 1 -150 0 -14 -1 -42 -2 -63 -3 -20 -1 -37 2 -37 6 0 5
-4 6 -10 2 -5 -3 -49 -5 -97 -5 -90 1 -110 0 -176 -3 -20 -1 -37 2 -37 6 0 5
-5 5 -10 2 -15 -9 -213 -10 -227 -2 -7 4 -14 4 -17 -1 -5 -8 -99 -6 -123 3 -7
2 -14 1 -17 -3 -5 -9 -270 -7 -285 2 -6 4 -11 4 -11 -1 0 -7 -94 -9 -110 -3
-3 1 -16 1 -30 1 -19 -1 -41 14 -86 61 l-61 63 1 2118 1 2119 -144 126 c-79
70 -159 140 -178 155 l-33 28 0 -2423z"/>
<path d="M5957 4424 c-1 -1 -26 -5 -56 -9 -30 -4 -61 -8 -70 -10 -9 -1 -45 -6
-81 -10 -36 -4 -74 -9 -85 -12 -11 -2 -38 -6 -60 -8 -109 -11 -106 -9 -201
-123 -49 -59 -93 -112 -99 -118 -5 -6 -28 -32 -50 -59 -51 -62 -99 -119 -105
-125 -3 -3 -50 -59 -105 -125 -144 -174 -152 -180 -223 -177 -12 1 -86 40
-165 88 -246 151 -356 218 -413 252 l-55 33 -18 -23 c-10 -13 -29 -35 -42 -49
-13 -14 -33 -37 -44 -50 -83 -102 -120 -145 -129 -154 -6 -5 -29 -32 -51 -60
-35 -44 -69 -84 -100 -119 -12 -14 -104 -124 -125 -149 -103 -129 -138 -144
-236 -102 -21 9 -43 18 -49 19 -5 1 -32 12 -59 24 -27 12 -50 22 -52 22 -6 0
-359 147 -461 191 -68 30 -41 47 -267 -165 -172 -161 -180 -168 -301 -281 -60
-56 -123 -114 -139 -129 -32 -29 -86 -35 -131 -14 -22 10 -115 141 -115 162 0
4 -8 19 -19 34 -10 15 -41 65 -68 112 -27 47 -85 146 -128 221 l-79 135 -101
-75 c-55 -42 -102 -78 -105 -81 -12 -13 -211 -161 -242 -180 -41 -25 -78 -25
-120 -2 -56 32 -148 86 -186 110 -21 12 -48 28 -62 35 -14 6 -27 14 -30 17 -5
6 -129 80 -134 80 -1 0 -2 -306 -1 -681 0 -743 -4 -691 56 -703 22 -5 46 -11
182 -52 28 -8 59 -17 67 -19 8 -2 15 -4 15 -5 0 -1 7 -3 15 -5 8 -1 27 -6 41
-10 21 -5 33 1 71 37 139 131 349 331 403 383 35 33 74 71 88 83 41 38 90 44
140 18 35 -19 144 -87 217 -136 99 -66 233 -150 240 -150 4 0 10 -3 12 -8 5
-12 201 -132 216 -132 7 0 15 7 18 15 4 8 12 15 19 15 6 0 20 9 30 20 10 11
24 20 31 20 7 0 14 4 16 8 3 7 55 45 209 152 19 14 79 56 133 94 118 83 151
91 212 49 38 -26 139 -105 239 -189 22 -18 101 -82 175 -143 124 -100 136
-108 150 -93 13 15 58 70 107 132 6 8 27 33 45 56 83 101 101 123 149 184 28
36 59 74 68 85 9 12 35 43 57 71 45 56 49 62 105 127 45 51 86 69 132 56 15
-4 147 -87 292 -184 146 -96 271 -178 278 -181 9 -3 31 24 62 78 27 46 52 85
56 88 3 3 9 15 13 28 4 12 12 22 17 22 5 0 9 4 9 9 0 5 41 75 90 155 50 81 90
151 90 156 0 4 4 10 9 12 5 2 20 22 33 46 51 92 170 280 188 297 32 29 93 27
178 -5 145 -54 437 -159 451 -162 13 -3 15 86 15 620 l1 623 -38 -3 c-21 -1
-39 -3 -40 -4z"/>
<path d="M5493 3082 c-10 -15 -23 -36 -30 -47 -6 -11 -79 -130 -161 -265 -82
-135 -188 -310 -237 -390 -102 -170 -139 -210 -191 -210 -45 0 -39 -3 -287
162 -115 76 -212 138 -217 138 -5 0 -10 4 -12 8 -4 11 -94 72 -106 72 -5 0
-83 -91 -172 -202 -90 -112 -168 -207 -174 -213 -6 -5 -33 -39 -61 -75 -27
-36 -54 -70 -60 -76 -5 -6 -23 -29 -40 -50 -82 -104 -106 -120 -175 -114 -21
1 -80 37 -100 60 -3 3 -50 41 -105 85 -55 44 -102 82 -105 85 -3 3 -74 61
-158 128 -93 75 -158 120 -165 115 -7 -4 -44 -31 -84 -60 -40 -29 -76 -53 -82
-53 -5 0 -11 -4 -13 -8 -3 -8 -171 -129 -318 -230 -52 -35 -91 -45 -128 -31
-13 5 -68 38 -123 74 -54 36 -102 65 -105 65 -2 0 -10 5 -17 11 -7 5 -61 41
-122 79 -60 38 -114 73 -120 77 -21 16 -193 123 -198 123 -4 0 -24 -17 -45
-37 -21 -21 -125 -121 -232 -223 -106 -102 -208 -199 -226 -217 -62 -60 -79
-59 -320 11 l-214 63 0 -451 0 -452 2721 1 2722 0 -1 925 c0 509 -1 935 -1
947 -1 16 -11 25 -38 34 -21 6 -42 14 -48 18 -5 3 -14 6 -20 7 -5 1 -97 34
-203 73 -107 39 -198 71 -202 71 -5 0 -17 -12 -27 -28z"/>
</g>
</svg>
